<mxfile host="65bd71144e">
    <diagram id="mUj4hxTXFprnxo-0_riX" name="Page-1">
        <mxGraphModel dx="1326" dy="779" grid="1" gridSize="10" guides="1" tooltips="1" connect="1" arrows="1" fold="1" page="1" pageScale="1" pageWidth="850" pageHeight="1100" math="0" shadow="0">
            <root>
                <mxCell id="0"/>
                <mxCell id="1" parent="0"/>
                <mxCell id="30" value="Système" style="verticalAlign=top;align=left;spacingTop=8;spacingLeft=2;spacingRight=12;shape=cube;size=10;direction=south;fontStyle=4;html=1;whiteSpace=wrap;" parent="1" vertex="1">
                    <mxGeometry x="330" y="30" width="460" height="700" as="geometry"/>
                </mxCell>
                <mxCell id="2" value="pharmacien / préparateur" style="shape=umlActor;verticalLabelPosition=bottom;verticalAlign=top;html=1;" parent="1" vertex="1">
                    <mxGeometry x="90" y="250" width="30" height="60" as="geometry"/>
                </mxCell>
                <mxCell id="4" value="client" style="html=1;whiteSpace=wrap;" parent="1" vertex="1">
                    <mxGeometry x="380" y="110" width="110" height="50" as="geometry"/>
                </mxCell>
                <mxCell id="5" value="médicament" style="html=1;whiteSpace=wrap;" parent="1" vertex="1">
                    <mxGeometry x="380" y="220" width="110" height="50" as="geometry"/>
                </mxCell>
                <mxCell id="6" value="achat" style="html=1;whiteSpace=wrap;" parent="1" vertex="1">
                    <mxGeometry x="380" y="340" width="110" height="50" as="geometry"/>
                </mxCell>
                <mxCell id="7" value="médecin" style="html=1;whiteSpace=wrap;" parent="1" vertex="1">
                    <mxGeometry x="380" y="460" width="110" height="50" as="geometry"/>
                </mxCell>
                <mxCell id="10" value="" style="endArrow=none;startArrow=none;endFill=0;startFill=0;endSize=8;html=1;verticalAlign=bottom;labelBackgroundColor=none;strokeWidth=3;entryX=0;entryY=0.5;entryDx=0;entryDy=0;" parent="1" target="4" edge="1">
                    <mxGeometry width="160" relative="1" as="geometry">
                        <mxPoint x="140" y="270" as="sourcePoint"/>
                        <mxPoint x="220" y="190" as="targetPoint"/>
                    </mxGeometry>
                </mxCell>
                <mxCell id="11" value="" style="endArrow=none;startArrow=none;endFill=0;startFill=0;endSize=8;html=1;verticalAlign=bottom;labelBackgroundColor=none;strokeWidth=3;entryX=0;entryY=0.5;entryDx=0;entryDy=0;entryPerimeter=0;" parent="1" target="6" edge="1">
                    <mxGeometry width="160" relative="1" as="geometry">
                        <mxPoint x="140" y="270" as="sourcePoint"/>
                        <mxPoint x="500" y="400" as="targetPoint"/>
                    </mxGeometry>
                </mxCell>
                <mxCell id="12" value="" style="endArrow=none;startArrow=none;endFill=0;startFill=0;endSize=8;html=1;verticalAlign=bottom;labelBackgroundColor=none;strokeWidth=3;entryX=0;entryY=0.5;entryDx=0;entryDy=0;" parent="1" target="5" edge="1">
                    <mxGeometry width="160" relative="1" as="geometry">
                        <mxPoint x="140" y="270" as="sourcePoint"/>
                        <mxPoint x="300" y="270" as="targetPoint"/>
                    </mxGeometry>
                </mxCell>
                <mxCell id="13" value="" style="endArrow=none;startArrow=none;endFill=0;startFill=0;endSize=8;html=1;verticalAlign=bottom;labelBackgroundColor=none;strokeWidth=3;entryX=0;entryY=0.5;entryDx=0;entryDy=0;" parent="1" target="7" edge="1">
                    <mxGeometry width="160" relative="1" as="geometry">
                        <mxPoint x="140" y="270" as="sourcePoint"/>
                        <mxPoint x="500" y="400" as="targetPoint"/>
                    </mxGeometry>
                </mxCell>
                <mxCell id="15" value="avec ordonnance" style="html=1;whiteSpace=wrap;" parent="1" vertex="1">
                    <mxGeometry x="660" y="500" width="110" height="50" as="geometry"/>
                </mxCell>
                <mxCell id="16" value="achat direct sans ordonnance" style="html=1;whiteSpace=wrap;" parent="1" vertex="1">
                    <mxGeometry x="620" y="230" width="110" height="50" as="geometry"/>
                </mxCell>
                <mxCell id="17" value="" style="endArrow=open;endFill=1;endSize=12;html=1;exitX=0.25;exitY=0;exitDx=0;exitDy=0;" parent="1" source="15" edge="1">
                    <mxGeometry width="160" relative="1" as="geometry">
                        <mxPoint x="340" y="400" as="sourcePoint"/>
                        <mxPoint x="490" y="370" as="targetPoint"/>
                        <Array as="points">
                            <mxPoint x="688" y="370"/>
                        </Array>
                    </mxGeometry>
                </mxCell>
                <mxCell id="18" value="" style="endArrow=open;endFill=1;endSize=12;html=1;entryX=1;entryY=0.5;entryDx=0;entryDy=0;exitX=0;exitY=0.5;exitDx=0;exitDy=0;" parent="1" source="16" target="6" edge="1">
                    <mxGeometry width="160" relative="1" as="geometry">
                        <mxPoint x="340" y="400" as="sourcePoint"/>
                        <mxPoint x="500" y="400" as="targetPoint"/>
                    </mxGeometry>
                </mxCell>
                <mxCell id="22" value="mutuelle" style="html=1;whiteSpace=wrap;" parent="1" vertex="1">
                    <mxGeometry x="380" y="550" width="110" height="50" as="geometry"/>
                </mxCell>
                <mxCell id="26" value="" style="endArrow=none;startArrow=none;endFill=0;startFill=0;endSize=8;html=1;verticalAlign=bottom;labelBackgroundColor=none;strokeWidth=3;entryX=0;entryY=0.5;entryDx=0;entryDy=0;" parent="1" target="22" edge="1">
                    <mxGeometry width="160" relative="1" as="geometry">
                        <mxPoint x="140" y="270" as="sourcePoint"/>
                        <mxPoint x="400" y="545" as="targetPoint"/>
                    </mxGeometry>
                </mxCell>
                <mxCell id="31" value="ordonnance" style="html=1;whiteSpace=wrap;" parent="1" vertex="1">
                    <mxGeometry x="380" y="640" width="110" height="50" as="geometry"/>
                </mxCell>
                <mxCell id="32" value="" style="endArrow=none;startArrow=none;endFill=0;startFill=0;endSize=8;html=1;verticalAlign=bottom;labelBackgroundColor=none;strokeWidth=3;entryX=0;entryY=0.5;entryDx=0;entryDy=0;" parent="1" target="31" edge="1">
                    <mxGeometry width="160" relative="1" as="geometry">
                        <mxPoint x="140" y="270" as="sourcePoint"/>
                        <mxPoint x="410" y="685" as="targetPoint"/>
                    </mxGeometry>
                </mxCell>
                <mxCell id="43" value="" style="endArrow=none;startArrow=none;endFill=0;startFill=0;endSize=8;html=1;verticalAlign=bottom;labelBackgroundColor=none;strokeWidth=3;exitX=1;exitY=0.75;exitDx=0;exitDy=0;entryX=1;entryY=0.5;entryDx=0;entryDy=0;" parent="1" source="4" target="7" edge="1">
                    <mxGeometry width="160" relative="1" as="geometry">
                        <mxPoint x="350" y="380" as="sourcePoint"/>
                        <mxPoint x="510" y="380" as="targetPoint"/>
                        <Array as="points">
                            <mxPoint x="550" y="148"/>
                            <mxPoint x="550" y="485"/>
                        </Array>
                    </mxGeometry>
                </mxCell>
                <mxCell id="44" value="" style="endArrow=none;startArrow=none;endFill=0;startFill=0;endSize=8;html=1;verticalAlign=bottom;labelBackgroundColor=none;strokeWidth=3;exitX=1;exitY=0.5;exitDx=0;exitDy=0;entryX=1;entryY=0.5;entryDx=0;entryDy=0;" parent="1" source="4" target="22" edge="1">
                    <mxGeometry width="160" relative="1" as="geometry">
                        <mxPoint x="500" y="158" as="sourcePoint"/>
                        <mxPoint x="500" y="495" as="targetPoint"/>
                        <Array as="points">
                            <mxPoint x="600" y="135"/>
                            <mxPoint x="600" y="575"/>
                        </Array>
                    </mxGeometry>
                </mxCell>
                <mxCell id="45" value="" style="endArrow=none;startArrow=none;endFill=0;startFill=0;endSize=8;html=1;verticalAlign=bottom;labelBackgroundColor=none;strokeWidth=3;exitX=1;exitY=0.75;exitDx=0;exitDy=0;entryX=0;entryY=0.75;entryDx=0;entryDy=0;" parent="1" source="7" target="15" edge="1">
                    <mxGeometry width="160" relative="1" as="geometry">
                        <mxPoint x="500" y="524.5" as="sourcePoint"/>
                        <mxPoint x="660" y="524.5" as="targetPoint"/>
                        <Array as="points">
                            <mxPoint x="550" y="500"/>
                            <mxPoint x="550" y="538"/>
                            <mxPoint x="620" y="538"/>
                        </Array>
                    </mxGeometry>
                </mxCell>
                <mxCell id="46" value="" style="endArrow=open;endFill=1;endSize=12;html=1;entryX=0;entryY=0.25;entryDx=0;entryDy=0;exitX=1;exitY=0.5;exitDx=0;exitDy=0;" edge="1" parent="1" source="5" target="16">
                    <mxGeometry width="160" relative="1" as="geometry">
                        <mxPoint x="380" y="200" as="sourcePoint"/>
                        <mxPoint x="540" y="200" as="targetPoint"/>
                    </mxGeometry>
                </mxCell>
                <mxCell id="47" value="" style="endArrow=open;endFill=1;endSize=12;html=1;entryX=0.136;entryY=0.04;entryDx=0;entryDy=0;exitX=1;exitY=0.25;exitDx=0;exitDy=0;entryPerimeter=0;" edge="1" parent="1" source="7" target="15">
                    <mxGeometry width="160" relative="1" as="geometry">
                        <mxPoint x="490" y="460" as="sourcePoint"/>
                        <mxPoint x="650" y="460" as="targetPoint"/>
                        <Array as="points">
                            <mxPoint x="675" y="470"/>
                        </Array>
                    </mxGeometry>
                </mxCell>
                <mxCell id="48" value="" style="endArrow=open;endFill=1;endSize=12;html=1;entryX=0.75;entryY=0;entryDx=0;entryDy=0;" edge="1" parent="1" target="15">
                    <mxGeometry width="160" relative="1" as="geometry">
                        <mxPoint x="490" y="120" as="sourcePoint"/>
                        <mxPoint x="650" y="120" as="targetPoint"/>
                        <Array as="points">
                            <mxPoint x="743" y="120"/>
                        </Array>
                    </mxGeometry>
                </mxCell>
                <mxCell id="49" value="" style="endArrow=open;endFill=1;endSize=12;html=1;entryX=0.5;entryY=0;entryDx=0;entryDy=0;" edge="1" parent="1" target="16">
                    <mxGeometry width="160" relative="1" as="geometry">
                        <mxPoint x="510" y="120" as="sourcePoint"/>
                        <mxPoint x="670" y="120" as="targetPoint"/>
                        <Array as="points">
                            <mxPoint x="675" y="120"/>
                        </Array>
                    </mxGeometry>
                </mxCell>
                <mxCell id="50" value="" style="endArrow=open;endFill=1;endSize=12;html=1;entryX=0.818;entryY=0.98;entryDx=0;entryDy=0;entryPerimeter=0;" edge="1" parent="1" target="15">
                    <mxGeometry width="160" relative="1" as="geometry">
                        <mxPoint x="490" y="664.5" as="sourcePoint"/>
                        <mxPoint x="650" y="664.5" as="targetPoint"/>
                        <Array as="points">
                            <mxPoint x="750" y="665"/>
                        </Array>
                    </mxGeometry>
                </mxCell>
            </root>
        </mxGraphModel>
    </diagram>
</mxfile>